<svg xmlns="http://www.w3.org/2000/svg" viewBox="0 0 1600 900">
<defs><linearGradient id="bg" x1="0" y1="0" x2="1" y2="1"><stop stop-color="#FFF4F6"/><stop offset="1" stop-color="#FFF0E7"/></linearGradient><filter id="s" x="-30%" y="-30%" width="170%" height="180%"><feDropShadow dx="0" dy="18" stdDeviation="24" flood-color="#4D3244" flood-opacity=".16"/></filter></defs>
<rect width="1600" height="900" fill="url(#bg)"/>
<g font-family="system-ui,-apple-system,Segoe UI,sans-serif"><text x="120" y="180" font-size="68" font-weight="800" fill="#4D3244">Swap, not retype.</text><text x="124" y="248" font-size="31" fill="#8D7480">Reverse the pair and recalculate the</text><text x="124" y="292" font-size="31" fill="#8D7480">value without starting over.</text><rect x="120" y="392" width="490" height="208" rx="52" fill="#fff" stroke="#EBD9DF"/><text x="170" y="474" font-size="48" font-weight="800" fill="#4D3244">USD</text><text x="336" y="474" font-size="48" font-weight="800" fill="#4D3244">↕</text><text x="409" y="474" font-size="48" font-weight="800" fill="#4D3244">JPY</text><text x="170" y="535" font-size="29" font-weight="750" fill="#F287A7">Tap once. Done.</text></g>
<g filter="url(#s)" transform="translate(950 70)"><rect width="435" height="770" rx="48" fill="#302631"/><rect x="15" y="15" width="405" height="740" rx="38" fill="#FFF9F7"/><rect x="145" y="14" width="145" height="28" rx="14" fill="#302631"/><rect x="15" y="60" width="405" height="78" fill="#F287A7"/><text x="45" y="108" font-family="system-ui" font-size="26" font-weight="800" fill="#fff">Osu</text><g font-family="system-ui,-apple-system,Segoe UI,sans-serif"><text x="45" y="158" font-size="22" font-weight="800" fill="#4D3244">Swap in one tap</text><rect x="45" y="192" width="345" height="96" rx="18" fill="#fff" stroke="#E9D8DE" stroke-width="3"/><text x="62" y="232" font-size="18" font-weight="800" fill="#F287A7">USD</text><text x="290" y="232" font-size="23" font-weight="800" fill="#4D3244">100.00</text><circle cx="217" cy="307" r="32" fill="#F287A7"/><text x="217" y="318" text-anchor="middle" font-size="32" font-weight="800" fill="#fff">↕</text><rect x="45" y="330" width="345" height="96" rx="18" fill="#fff" stroke="#E9D8DE" stroke-width="3"/><text x="62" y="370" font-size="18" font-weight="800" fill="#4D3244">JPY</text><text x="287" y="370" font-size="23" font-weight="800" fill="#4D3244">14,785</text><rect x="45" y="515" width="345" height="90" rx="18" fill="#F8F5F6"/><text x="62" y="558" font-size="14" font-weight="700" fill="#8D7480">Cached rates keep it snappy.</text></g></g>
</svg>